# xmcd
#
# Track frame offsets: 
#        150
#        9490
#        20073
#        29738
#        45823
#        58548
#        72595
#        87575
#        99833
#        111713
#        124218
#        136728
#        146870
#        162303
#
# Disc length: 2306 seconds
#
# Revision: 0
# Processed by: cddbd v1.5.2PL0 Copyright (c) Steve Scherf et al.
# Submitted via: ExactAudioCopy v0.99pb5
#
DISCID=c909000e
DTITLE=Orquestra E Coro TerraMãe - Sertanejo Bom de Dança
DYEAR=1989
DGENRE=Sertaneja
TTITLE0=Meu Primeiro Amor
TTITLE1=Fio De Cabelo
TTITLE2=No Rancho Fundo
TTITLE3=O Menino Da Porteira
TTITLE4=Tristeza Do Jeca
TTITLE5=Terra Tombada
TTITLE6=Lembranças
TTITLE7=Estrada Da Vida
TTITLE8=Blusa Vermelha
TTITLE9=Casinha Pequena
TTITLE10=Pingo D´agua
TTITLE11=Rio De Lágrimas
TTITLE12=Sertaneja
TTITLE13=As Andorinhas
EXTD=
EXTT0=
EXTT1=
EXTT2=
EXTT3=
EXTT4=
EXTT5=
EXTT6=
EXTT7=
EXTT8=
EXTT9=
EXTT10=
EXTT11=
EXTT12=
EXTT13=
PLAYORDER=
